<?xml version="1.0" encoding="UTF-8" standalone="no"?>
<svg
   xmlns:dc="http://purl.org/dc/elements/1.1/"
   xmlns:cc="http://creativecommons.org/ns#"
   xmlns:rdf="http://www.w3.org/1999/02/22-rdf-syntax-ns#"
   xmlns:svg="http://www.w3.org/2000/svg"
   xmlns="http://www.w3.org/2000/svg"
   xmlns:sodipodi="http://sodipodi.sourceforge.net/DTD/sodipodi-0.dtd"
   xmlns:inkscape="http://www.inkscape.org/namespaces/inkscape"
   width="448pt"
   height="240pt"
   viewBox="0 0 448 240"
   version="1.1"
   id="svg3336"
   inkscape:version="0.91 r13725"
   sodipodi:docname="Logo.svg">
  <metadata
     id="metadata3442">
    <rdf:RDF>
      <cc:Work
         rdf:about="">
        <dc:format>image/svg+xml</dc:format>
        <dc:type
           rdf:resource="http://purl.org/dc/dcmitype/StillImage" />
      </cc:Work>
    </rdf:RDF>
  </metadata>
  <defs
     id="defs3440" />
  <sodipodi:namedview
     pagecolor="#ffffff"
     bordercolor="#666666"
     borderopacity="1"
     objecttolerance="10"
     gridtolerance="10"
     guidetolerance="10"
     inkscape:pageopacity="0"
     inkscape:pageshadow="2"
     inkscape:window-width="1600"
     inkscape:window-height="837"
     id="namedview3438"
     showgrid="false"
     inkscape:snap-text-baseline="true"
     inkscape:zoom="2"
     inkscape:cx="126.34523"
     inkscape:cy="106.48307"
     inkscape:window-x="-4"
     inkscape:window-y="-4"
     inkscape:window-maximized="1"
     inkscape:current-layer="svg3336" />
  <path
     style="fill:#000000"
     d="m 50.282207,42.697947 c 0.038,0.0455 0.0646,0.04993 0.0813,0.02031 -0.0262,-0.0059 -0.0549,-0.01429 -0.0813,-0.02031 z M 393.97909,53.871384 c -0.31304,-0.0066 -0.59462,0.125169 -0.88438,0.365625 -3.62144,3.00552 -3.51122,4.653034 0.66094,9.93125 12.8544,16.262041 18.89154,35.896441 17.73906,57.685931 -1.0176,19.24027 -7.73801,36.89933 -18.90313,49.67501 l -3.68749,4.22188 2.68749,2.71406 2.68907,2.71562 2.85937,-3.29844 c 1.57216,-1.81465 4.32311,-5.55 6.11407,-8.3 8.98246,-13.79234 14.13259,-28.82642 15.52812,-44.01094 l 0,-16.90468 c -1.6278,-17.658035 -8.34316,-34.973656 -20.10468,-50.218753 -2.54136,-3.294072 -3.7594,-4.556723 -4.69844,-4.576563 z m -11.0672,11.710938 -2.77187,2.729687 -2.77187,2.729687 2.63906,2.770313 c 8.30072,8.712384 14.62419,25.153976 15.49219,40.279691 0.88784,15.47255 -4.28043,31.93234 -13.81563,43.99531 l -4.00156,5.06094 2.3,2.9125 c 1.26448,1.60163 2.5234,2.9255 2.79844,2.94219 1.08296,0.0659 9.96229,-12.76592 12.88437,-18.62032 8.01832,-16.06457 9.74422,-35.59926 4.66094,-52.749999 -3.04776,-10.282934 -9.01274,-22.247279 -13.98594,-28.049999 l -3.42813,-4 z m -87.3328,4.5875 c -1.25532,0.02926 -2.55286,0.666924 -3.79844,1.9125 -1.78981,1.789824 -2,3.333748 -2,14.6875 l 0,12.687499 -2.75,-2.634376 c -5.68269,-5.443061 -13.23845,-7.025178 -20.01876,-4.192185 -7.12153,2.975569 -11.67253,9.3649 -12.96249,18.19843 l -0.69375,4.75313 -0.73281,-6.30938 c -0.93411,-8.03941 -3.44814,-13.120971 -7.70313,-15.570306 -4.16297,-2.396368 -15.93062,-3.303814 -21.90156,-1.689062 -10.94906,2.961016 -17.31692,15.797128 -9.58438,19.320308 2.34201,1.06709 2.80629,0.90811 4.72188,-1.61562 5.92105,-7.80084 7.16872,-8.63594 12.89375,-8.63594 6.25932,0 8.18856,1.48772 9.23281,7.11718 l 0.67188,3.6172 -7.83594,2.08437 c -4.31,1.14668 -10.0074,2.61831 -12.66094,3.27031 -6.52812,1.60408 -11.19977,6.11286 -12.14532,11.72188 l -0.72656,4.31093 -3.65312,-6.24218 c -2.00846,-3.43389 -5.26052,-7.95271 -7.22656,-10.04063 l -3.57344,-3.79531 4.52344,-2.27188 c 7.19694,-3.61406 10.28783,-8.31693 10.87656,-16.545306 0.60491,-8.4542 -1.72174,-14.577125 -7.09844,-18.678124 -4.49074,-3.425248 -14.36842,-4.850174 -30.30156,-4.373438 -16.74388,0.501016 -15.35156,-2.971751 -15.35156,38.257818 0,29.26507 0.2227,34.43919 1.55781,36.34531 2.00432,2.86157 6.49889,2.9212 9.0375,0.12031 1.65075,-1.82128 1.94757,-4.02344 2.22813,-16.5 l 0.325,-14.39844 4.84844,0 c 6.79104,0 9.34283,2.51162 16.91718,16.65938 7.27699,13.59236 9.45053,16.34062 12.93125,16.34062 2.76329,0 6.15469,-2.56462 6.15469,-4.65469 0,-0.73973 0.45,-1.34531 1,-1.34531 0.55,0 1,0.44086 1,0.97969 0,0.53882 1.879,1.93805 4.175,3.10937 5.9303,3.02542 13.0569,2.30903 20.00624,-2.01093 l 5.25,-3.26251 2.88126,3.5922 c 3.26537,4.0704 6.43339,4.6348 9.15156,1.63124 1.31896,-1.45744 1.60072,-2.80468 1.09531,-5.25 -0.37395,-1.8092 -0.85265,-6.88906 -1.06249,-11.28906 -0.35796,-7.50561 -0.32314,-7.67257 0.55937,-2.70313 2.25315,12.68751 10.12117,21.20313 19.58906,21.20313 4.34697,0 11.97519,-3.41755 13.66406,-6.12187 1.47797,-2.36663 2.69063,-2.41143 2.69063,-0.1 0,2.77653 2.89536,6.22187 5.22812,6.22187 1.16301,0 2.93796,-0.74442 3.94376,-1.65469 1.70626,-1.54413 1.82812,-4.03427 1.82812,-37.17187 0,-31.644946 -0.18009,-35.714335 -1.65469,-37.343751 -1.07819,-1.191392 -2.29156,-1.771459 -3.54687,-1.742187 z m 14.76718,0.954687 c -1.24288,0.0351 -2.53427,0.525012 -3.73594,1.6125 -2.26024,2.045488 -2.40759,7.623654 -0.2578,9.773438 2.45112,2.45112 7.1071,1.991876 8.99374,-0.8875 3.24339,-4.950032 -0.56116,-10.62379 -5,-10.498438 z M 42.538457,72.082322 c -16.36927,0 -19.36083,0.236295 -20.92812,1.654687 -1.704036,1.542128 -1.829692,3.997104 -1.829692,36.000001 0,33.01168 0.07765,34.42295 2.000002,36.34531 1.1,1.1 2.9,2 4,2 1.1,0 2.9,-0.9 4,-2 1.82223,-1.82222 2,-3.33333 2,-17 l 0,-15 12.06562,0 c 13.89372,0 15.93438,-0.68242 15.93438,-5.33438 0,-5.25508 -1.09942,-5.66562 -15.2,-5.66562 l -12.8,0 0,-9.999998 0,-10 14.27812,0 c 15.60758,0 18.72188,-0.911703 18.72188,-5.484375 0,-5.127784 -1.56015,-5.515625 -22.24219,-5.515625 z m 329.376563,5.526562 -2.56718,2.410938 c -1.41176,1.326288 -2.56719,2.767557 -2.56719,3.203125 0,0.43556 1.80746,3.586749 4.01562,7.003125 4.45568,6.893793 7.77392,16.452738 8.62344,24.840628 0.96384,9.51666 -3.52069,23.73956 -10.28125,32.61093 -2.89544,3.79955 -2.90386,4.19445 -0.1625,7.11251 l 2.19531,2.33594 2.26719,-2.77188 c 3.17424,-3.87998 8.75028,-14.7341 10.92812,-21.27188 2.47312,-7.42446 2.48799,-23.24692 0.0297,-31.44062 -1.93473,-6.448492 -7.35999,-17.570422 -10.51095,-21.546878 l -1.97031,-2.485938 z m -203.13437,5.473438 10.54531,0 c 9.7836,0 10.71865,0.173334 12.93437,2.389062 4.68069,4.680688 4.18112,12.822345 -0.99531,16.214066 -1.84681,1.21008 -5.50146,1.84674 -12.54531,2.18593 l -9.93906,0.47812 0,-10.632804 0,-10.634374 z m 173.02344,8 c -5.04423,0 -12.58235,2.940257 -15.95938,6.224999 -5.68492,5.529589 -8.0434,11.934959 -8.05469,21.876559 -0.0156,13.7027 4.0065,21.73348 13.16719,26.29844 13.41691,6.68595 28.19209,0.44518 33.37969,-14.09844 2.08835,-5.85482 1.81066,-18.24529 -0.55,-24.55469 -3.43855,-9.190357 -12.5908,-15.746868 -21.98281,-15.746868 z m -31.10782,0.09687 c -1.10262,-0.0079 -2.29815,0.482952 -3.69218,1.459376 -2.19641,1.538376 -2.22344,1.852822 -2.22344,26.671872 0,21.96604 0.20717,25.34427 1.65468,26.94375 2.35969,2.60742 5.85629,2.26667 8.27344,-0.80625 1.96168,-2.49386 2.07188,-3.87836 2.07188,-25.86562 0,-21.987251 -0.1102,-23.371755 -2.07188,-25.865628 -1.3313,-1.69248 -2.59484,-2.527404 -4.0125,-2.5375 z M 83.996267,91.52763 c -4.65487,0.06452 -9.36337,0.89073 -12.5625,2.45625 -5.40528,2.645117 -8.64243,7.0052 -8.64843,11.64844 -0.008,6.51858 5.65155,7.53971 9.34687,1.68593 3.58218,-5.67451 5.25396,-6.66406 11.25937,-6.66406 6.4483,0 8.31923,1.48707 9.08907,7.22657 l 0.546883,4.075 -5.373443,1.525 c -2.95522,0.83903 -8.52344,2.29219 -12.37344,3.22968 -5.48719,1.33615 -7.81044,2.50737 -10.75,5.42032 -3.45507,3.42377 -3.75,4.16277 -3.75,9.38437 0,8.25556 3.34942,13.65328 9.64219,15.53906 6.30945,1.89077 14.22475,0.13102 19.85781,-4.41406 l 3.000003,-2.42031 3.67031,4.18125 c 3.61859,4.12228 3.71007,4.15979 6.5,2.63125 2.45912,-1.34729 2.79516,-2.0677 2.56719,-5.5 -0.14427,-2.1723 -0.60672,-11.60582 -1.02813,-20.9625 -0.89355,-19.83972 -2.1304,-23.645839 -8.75312,-26.92969 -2.98442,-1.479816 -7.585763,-2.177012 -12.240633,-2.1125 z m 29.871883,0.554688 c -5.36455,0 -5.5875,1.098411 -5.5875,27.551562 0,22.43444 0.14163,24.39642 1.90468,26.34375 2.39309,2.64324 5.02018,2.67983 7.59532,0.10469 1.82859,-1.82858 2.00178,-3.34986 2.02188,-17.75 0.0185,-13.28692 0.31865,-16.40146 1.91562,-19.91876 2.22853,-4.90825 4.46879,-6.33124 9.97343,-6.33124 6.83103,0 7.49899,2.00424 8.08907,24.28593 0.45579,17.21039 0.67272,19.00543 2.44219,20.29688 2.71461,1.98128 4.9314,1.76731 7.15312,-0.69062 1.73359,-1.91791 1.90469,-3.83 1.90469,-21.25 0,-21.10227 -0.64456,-24.49117 -5.55625,-29.196881 -2.58726,-2.478742 -3.95415,-2.935924 -9.72656,-3.253124 -6.2126,-0.341392 -7.03603,-0.135829 -10.96719,2.726563 -2.33749,1.702009 -4.25,3.540945 -4.25,4.087497 0,0.54656 -0.45,0.993755 -1,0.993755 -0.55,0 -1,-0.929467 -1,-2.065627 0,-3.652841 -1.88846,-5.934375 -4.9125,-5.934375 z m 227.84531,9.396872 c 1.14946,-0.0471 2.27655,0.11201 3.30938,0.50469 6.37305,2.42302 9.59681,10.67991 8.46249,21.67031 -0.64791,6.27761 -2.878,10.50863 -6.74375,12.79219 -5.97954,3.53221 -12.65939,0.612 -15.47812,-6.76875 -2.41163,-6.31473 -1.69048,-17.90556 1.42812,-22.95156 1.92126,-3.10865 5.57346,-5.10547 9.02188,-5.24688 z m -64.19531,0.0594 c 2.08208,0.0384 3.99353,0.98094 6.14218,2.90937 3.55523,3.19084 5.12032,7.81806 5.12032,15.13438 0,7.27184 -1.60316,12.12038 -5.07812,15.35782 -3.4701,3.23288 -9.78404,2.94177 -13.17032,-0.60782 -3.64412,-3.81986 -4.75156,-7.31276 -4.75156,-14.99844 0,-8.64712 2.84028,-14.86854 7.71719,-16.90625 1.46108,-0.61047 2.77107,-0.91213 4.02031,-0.88906 z m -37.45938,18.68281 c 0.89817,-0.0842 0.88449,1.0016 0.44376,5.27188 -0.71239,6.9024 -2.72651,10.2762 -7.2672,12.17344 -5.06079,2.11452 -8.23074,1.76007 -11.00156,-1.22969 -5.24151,-5.65569 -1.84084,-11.00929 8.67188,-13.65 3.61383,-0.90776 7.38437,-1.96339 8.37968,-2.34531 0.31043,-0.11912 0.56617,-0.20088 0.77344,-0.22032 z m -148.306243,0.12969 c 0.86888,0.0435 1.02812,1.14363 1.02812,4.75938 0,5.90293 -1.97298,9.93405 -6.03907,12.33593 -8.93377,5.27732 -19.0101,-2.94548 -12.98905,-10.6 1.38742,-1.76383 3.97899,-3.00112 8.75,-4.17812 3.7283,-0.91976 7.56562,-1.90875 8.52812,-2.19688 0.28282,-0.0847 0.52137,-0.13035 0.72188,-0.12031 z m 170.028123,33.73125 c -0.0408,0 -0.0799,0.0211 -0.11876,0.0562 l 0.23751,0 c -0.0389,-0.0351 -0.078,-0.0562 -0.11875,-0.0562 z m -196.937503,5.44532 -0.12656,0.0125 c 0.0272,0.0186 0.0542,0.0375 0.0813,0.0563 0.0156,-0.0221 0.029,-0.0476 0.0453,-0.0688 z m 60.517183,9.23593 c -0.005,0.007 -0.0136,0.0166 -0.0188,0.0234 0.004,0.0126 0.009,0.0249 0.0125,0.0375 0.007,-0.0186 0.0105,-0.0406 0.0172,-0.0594 -0.004,-8.4e-4 -0.007,-2.9e-4 -0.0109,-0.002 z m -103.174993,4.21719 c 0.002,0.0291 -0.002,0.0584 0.002,0.0875 0.004,0.0411 0.0208,-0.008 0.0328,-0.0641 -0.0116,-0.008 -0.0228,-0.0158 -0.0344,-0.0234 z"
     id="path4346"
     inkscape:connector-curvature="0" />
  <g
     inkscape:groupmode="layer"
     id="layer1"
     inkscape:label="Layer 1" />
  <path
     style="fill:#ff0000"
     d=""
     id="path4490"
     inkscape:connector-curvature="0"
     transform="scale(0.8,0.8)" />
  <path
     style="fill:#ff0000"
     d=""
     id="path4492"
     inkscape:connector-curvature="0"
     transform="scale(0.8,0.8)" />
  <path
     style="fill:#ff0000"
     d=""
     id="path4494"
     inkscape:connector-curvature="0"
     transform="scale(0.8,0.8)" />
  <path
     style="fill:#ff0000"
     d=""
     id="path4498"
     inkscape:connector-curvature="0"
     transform="scale(0.8,0.8)" />
  <path
     style="fill:#ff0000"
     d=""
     id="path4502"
     inkscape:connector-curvature="0"
     transform="scale(0.8,0.8)" />
  <path
     style="fill:#ff0000"
     d=""
     id="path4518"
     inkscape:connector-curvature="0"
     transform="scale(0.8,0.8)" />
  <path
     style="fill:#ff0000"
     d=""
     id="path4520"
     inkscape:connector-curvature="0"
     transform="scale(0.8,0.8)" />
  <path
     style="fill:#ff0000"
     d=""
     id="path4524"
     inkscape:connector-curvature="0"
     transform="scale(0.8,0.8)" />
  <path
     style="fill:#ff0000"
     d=""
     id="path4528"
     inkscape:connector-curvature="0"
     transform="scale(0.8,0.8)" />
  <path
     style="fill:#ff0000"
     d=""
     id="path4530"
     inkscape:connector-curvature="0"
     transform="scale(0.8,0.8)" />
  <path
     style="fill:#ff0000"
     d=""
     id="path4532"
     inkscape:connector-curvature="0"
     transform="scale(0.8,0.8)" />
  <path
     style="fill:#ff0000"
     d=""
     id="path4540"
     inkscape:connector-curvature="0"
     transform="scale(0.8,0.8)" />
  <path
     style="fill:#ff0000"
     d=""
     id="path4544"
     inkscape:connector-curvature="0"
     transform="scale(0.8,0.8)" />
  <path
     style="fill:#ff0000"
     d=""
     id="path4546"
     inkscape:connector-curvature="0"
     transform="scale(0.8,0.8)" />
  <path
     style="fill:#ff0000"
     d=""
     id="path4548"
     inkscape:connector-curvature="0"
     transform="scale(0.8,0.8)" />
  <path
     style="fill:#ff0000"
     d=""
     id="path4550"
     inkscape:connector-curvature="0"
     transform="scale(0.8,0.8)" />
  <path
     style="fill:#ff0000"
     d=""
     id="path4552"
     inkscape:connector-curvature="0"
     transform="scale(0.8,0.8)" />
  <path
     style="fill:#ff0000"
     d=""
     id="path4554"
     inkscape:connector-curvature="0"
     transform="scale(0.8,0.8)" />
  <path
     style="fill:#ff0000;fill-opacity:1"
     d=""
     id="path4589"
     inkscape:connector-curvature="0"
     transform="scale(0.8,0.8)" />
  <path
     style="fill:#ff0000;fill-opacity:1"
     d=""
     id="path4591"
     inkscape:connector-curvature="0"
     transform="scale(0.8,0.8)" />
  <path
     style="fill:#ff0000;fill-opacity:1"
     d=""
     id="path4619"
     inkscape:connector-curvature="0"
     transform="scale(0.8,0.8)" />
  <path
     style="fill:#ff0000;fill-opacity:1"
     d=""
     id="path4621"
     inkscape:connector-curvature="0"
     transform="scale(0.8,0.8)" />
  <path
     style="fill:#ff0000;fill-opacity:1"
     d=""
     id="path4623"
     inkscape:connector-curvature="0"
     transform="scale(0.8,0.8)" />
  <path
     style="fill:#ff0000;fill-opacity:1"
     d=""
     id="path4625"
     inkscape:connector-curvature="0"
     transform="scale(0.8,0.8)" />
  <path
     style="fill:#ff0000;fill-opacity:1"
     d=""
     id="path4629"
     inkscape:connector-curvature="0"
     transform="scale(0.8,0.8)" />
  <path
     style="fill:#ff0000;fill-opacity:1"
     d=""
     id="path4631"
     inkscape:connector-curvature="0"
     transform="scale(0.8,0.8)" />
  <path
     style="fill:#ff0000;fill-opacity:1"
     d=""
     id="path4633"
     inkscape:connector-curvature="0"
     transform="scale(0.8,0.8)" />
  <path
     style="fill:#ff0000;fill-opacity:1"
     d=""
     id="path4635"
     inkscape:connector-curvature="0"
     transform="scale(0.8,0.8)" />
  <path
     style="fill:#ff0000;fill-opacity:1"
     d=""
     id="path4637"
     inkscape:connector-curvature="0"
     transform="scale(0.8,0.8)" />
  <path
     style="fill:#ff0000;fill-opacity:1"
     d=""
     id="path4639"
     inkscape:connector-curvature="0"
     transform="scale(0.8,0.8)" />
  <path
     style="fill:#ff0000;fill-opacity:1"
     d=""
     id="path4641"
     inkscape:connector-curvature="0"
     transform="scale(0.8,0.8)" />
  <path
     style="fill:#ff0000;fill-opacity:1"
     d=""
     id="path4653"
     inkscape:connector-curvature="0"
     transform="scale(0.8,0.8)" />
</svg>
